<?xml version="1.0" encoding="utf-8"?>
<!-- Generator: Adobe Illustrator 15.0.0, SVG Export Plug-In  -->
<!DOCTYPE svg PUBLIC "-//W3C//DTD SVG 1.1//EN" "http://www.w3.org/Graphics/SVG/1.1/DTD/svg11.dtd" [
	<!ENTITY ns_flows "http://ns.adobe.com/Flows/1.0/">
]>
<svg version="1.1"
	 xmlns="http://www.w3.org/2000/svg" xmlns:xlink="http://www.w3.org/1999/xlink" xmlns:a="http://ns.adobe.com/AdobeSVGViewerExtensions/3.0/"
	 x="0px" y="0px" width="30px" height="16px" viewBox="0 0 30 16" enable-background="new 0 0 30 16" xml:space="preserve">
<defs>
</defs>
<g>
	<defs>
		<rect id="SVGID_4_" width="30" height="15.745"/>
	</defs>
	<clipPath id="SVGID_5_">
		<use xlink:href="#SVGID_4_"  overflow="visible"/>
	</clipPath>
	<path clip-path="url(#SVGID_5_)" fill="#008472" d="M29.789,6.194l-1.716-2.953C27.809,2.784,27.322,2.5,26.807,2.5h-3.328
		c-0.16,0-0.313,0.034-0.457,0.082V1.109C23.021,0.497,22.523,0,21.913,0H5.13C4.519,0,4.021,0.497,4.021,1.109v1.657
		c0,0.276,0.224,0.5,0.5,0.5c0.277,0,0.5-0.224,0.5-0.5V1.109C5.021,1.049,5.07,1,5.13,1h16.783c0.06,0,0.108,0.049,0.108,0.109
		v2.698C22.012,3.88,22,3.952,22,4.027v6.659c-0.85,0.437-1.438,1.303-1.462,2.314h-0.841h-7.151
		c-0.035-1.448-1.218-2.616-2.674-2.616S7.233,11.552,7.198,13H5.117c-0.053,0-0.096-0.043-0.096-0.098V10.71
		c0-0.276-0.223-0.5-0.5-0.5c-0.276,0-0.5,0.224-0.5,0.5v2.192C4.021,13.508,4.513,14,5.117,14h2.252
		c0.381,1.018,1.355,1.744,2.503,1.744s2.122-0.729,2.503-1.744h0.072h7.25h1.012c0.382,1.016,1.355,1.743,2.503,1.743
		s2.121-0.728,2.503-1.743h2.809C29.337,14,30,13.314,30,12.473V6.98C30,6.702,29.927,6.431,29.789,6.194 M9.872,14.745
		c-0.774,0-1.42-0.527-1.615-1.24c0-0.001,0.001-0.002,0.001-0.004c0-0.071-0.016-0.14-0.043-0.199
		c-0.011-0.077-0.024-0.155-0.024-0.235c0-0.928,0.754-1.682,1.681-1.682c0.927,0,1.681,0.754,1.681,1.682
		C11.553,13.993,10.799,14.745,9.872,14.745 M23.212,14.744c-0.927,0-1.681-0.753-1.681-1.68c0-0.928,0.754-1.682,1.681-1.682
		s1.681,0.754,1.681,1.682C24.893,13.991,24.139,14.744,23.212,14.744 M29,12.473C29,12.764,28.786,13,28.521,13h-2.637
		c-0.035-1.448-1.217-2.617-2.674-2.617c-0.064,0-0.126,0.016-0.189,0.02V3.91c0.049-0.233,0.229-0.41,0.455-0.41h3.328
		c0.164,0,0.314,0.091,0.402,0.243l1.716,2.953C28.975,6.782,29,6.879,29,6.98V12.473z"/>
</g>
<g>
	<defs>
		<rect id="SVGID_3_" width="30" height="15.745"/>
	</defs>
	<clipPath id="SVGID_6_">
		<use xlink:href="#SVGID_3_"  overflow="visible"/>
	</clipPath>
	<path clip-path="url(#SVGID_6_)" fill="#008472" d="M25.5,4.774c-0.552,0-1,0.448-1,1c0,0.552,0.448,1,1,1s1-0.448,1-1
		C26.5,5.222,26.052,4.774,25.5,4.774"/>
</g>
<g>
	<defs>
		<rect id="SVGID_2_" width="30" height="15.745"/>
	</defs>
	<clipPath id="SVGID_7_">
		<use xlink:href="#SVGID_2_"  overflow="visible"/>
	</clipPath>
	<path clip-path="url(#SVGID_7_)" fill="#008472" d="M12.5,5.246c0-0.276-0.224-0.5-0.5-0.5H0.5c-0.276,0-0.5,0.224-0.5,0.5
		s0.224,0.5,0.5,0.5H12C12.276,5.746,12.5,5.521,12.5,5.246"/>
</g>
<g>
	<defs>
		<rect id="SVGID_1_" width="30" height="15.745"/>
	</defs>
	<clipPath id="SVGID_8_">
		<use xlink:href="#SVGID_1_"  overflow="visible"/>
	</clipPath>
	<path clip-path="url(#SVGID_8_)" fill="#008472" d="M12,8.25c0-0.276-0.224-0.5-0.5-0.5H2c-0.276,0-0.5,0.224-0.5,0.5
		c0,0.275,0.224,0.5,0.5,0.5h9.5C11.776,8.75,12,8.525,12,8.25"/>
</g>
</svg>
