<?xml version="1.0" encoding="utf-8"?>
<!-- Generator: Adobe Illustrator 15.0.0, SVG Export Plug-In  -->
<!DOCTYPE svg PUBLIC "-//W3C//DTD SVG 1.1//EN" "http://www.w3.org/Graphics/SVG/1.1/DTD/svg11.dtd" [
	<!ENTITY ns_flows "http://ns.adobe.com/Flows/1.0/">
]>
<svg version="1.1"
	 xmlns="http://www.w3.org/2000/svg" xmlns:xlink="http://www.w3.org/1999/xlink" xmlns:a="http://ns.adobe.com/AdobeSVGViewerExtensions/3.0/"
	 x="0px" y="0px" width="32px" height="32px" viewBox="-9.149 -4.848 32 32" enable-background="new -9.149 -4.848 32 32"
	 xml:space="preserve">
<defs>
</defs>
<path fill="#B7B7B7" d="M13.638,0.097c-0.086-0.129-0.225-0.129-0.311,0L6.851,9.853L0.374,0.097c-0.086-0.129-0.224-0.129-0.309,0
	c-0.086,0.128-0.086,0.337,0,0.466l6.477,9.756l-6.477,9.755c-0.086,0.129-0.086,0.338,0,0.467c0.042,0.064,0.098,0.096,0.154,0.096
	c0.056,0,0.112-0.031,0.155-0.096l6.477-9.755l6.477,9.755c0.043,0.064,0.102,0.096,0.156,0.096s0.111-0.031,0.154-0.096
	c0.086-0.129,0.086-0.338,0-0.467l-6.477-9.755l6.477-9.756C13.724,0.434,13.724,0.226,13.638,0.097"/>
</svg>
