<?xml version="1.0" encoding="utf-8"?>
<!-- Generator: Adobe Illustrator 15.0.0, SVG Export Plug-In  -->
<!DOCTYPE svg PUBLIC "-//W3C//DTD SVG 1.1//EN" "http://www.w3.org/Graphics/SVG/1.1/DTD/svg11.dtd" [
	<!ENTITY ns_flows "http://ns.adobe.com/Flows/1.0/">
]>
<svg version="1.1"
	 xmlns="http://www.w3.org/2000/svg" xmlns:xlink="http://www.w3.org/1999/xlink" xmlns:a="http://ns.adobe.com/AdobeSVGViewerExtensions/3.0/"
	 x="0px" y="0px" width="30px" height="30px" viewBox="0 0 30 30" enable-background="new 0 0 30 30" xml:space="preserve">
<defs>
</defs>
<g>
	<defs>
		<rect id="SVGID_4_" width="30" height="30"/>
	</defs>
	<clipPath id="SVGID_5_">
		<use xlink:href="#SVGID_4_"  overflow="visible"/>
	</clipPath>
	<path clip-path="url(#SVGID_5_)" d="M8.861,22l4.749-0.003c0.205,0,0.398-0.08,0.542-0.226l9.596-9.596
		C23.91,12.015,24,11.799,24,11.57s-0.089-0.445-0.252-0.608L19.037,6.25C18.875,6.088,18.66,6,18.432,6s-0.445,0.089-0.606,0.251
		l-9.601,9.601c-0.113,0.115-0.186,0.258-0.214,0.428C8.003,16.313,8,16.379,8,16.413v4.726C8,21.613,8.387,22,8.861,22
		 M18.432,7.059l4.51,4.511L13.511,21H9l-0.001-4.51L18.432,7.059z"/>
</g>
<g>
	<defs>
		<rect id="SVGID_3_" width="30" height="30"/>
	</defs>
	<clipPath id="SVGID_6_">
		<use xlink:href="#SVGID_3_"  overflow="visible"/>
	</clipPath>
	<path clip-path="url(#SVGID_6_)" d="M15,0C6.729,0,0,6.729,0,15c0,8.271,6.729,15,15,15c8.271,0,15-6.729,15-15
		C30,6.729,23.271,0,15,0 M15,29C7.28,29,1,22.721,1,15C1,7.28,7.28,1,15,1c7.721,0,14,6.28,14,14C29,22.721,22.721,29,15,29"/>
</g>
<g>
	<defs>
		<rect id="SVGID_2_" width="30" height="30"/>
	</defs>
	<clipPath id="SVGID_7_">
		<use xlink:href="#SVGID_2_"  overflow="visible"/>
	</clipPath>
	<path clip-path="url(#SVGID_7_)" d="M11.662,17.45l7.596-7.597c0.195-0.195,0.195-0.511,0-0.707C19.16,9.049,19.032,9,18.904,9
		c-0.129,0-0.256,0.049-0.354,0.146l-7.596,7.597c-0.195,0.194-0.195,0.512,0,0.707C11.149,17.645,11.467,17.646,11.662,17.45"/>
</g>
<g>
	<defs>
		<rect id="SVGID_1_" width="30" height="30"/>
	</defs>
	<clipPath id="SVGID_8_">
		<use xlink:href="#SVGID_1_"  overflow="visible"/>
	</clipPath>
	<path clip-path="url(#SVGID_8_)" d="M13.258,19.047l7.596-7.597c0.195-0.195,0.195-0.511,0-0.707
		c-0.098-0.097-0.226-0.146-0.354-0.146s-0.256,0.049-0.354,0.146L12.55,18.34c-0.195,0.195-0.195,0.512,0,0.707
		C12.745,19.242,13.063,19.242,13.258,19.047"/>
</g>
</svg>
