<?xml version="1.0" encoding="utf-8"?>
<!-- Generator: Adobe Illustrator 15.0.0, SVG Export Plug-In  -->
<!DOCTYPE svg PUBLIC "-//W3C//DTD SVG 1.1//EN" "http://www.w3.org/Graphics/SVG/1.1/DTD/svg11.dtd" [
	<!ENTITY ns_flows "http://ns.adobe.com/Flows/1.0/">
]>
<svg version="1.1"
	 xmlns="http://www.w3.org/2000/svg" xmlns:xlink="http://www.w3.org/1999/xlink" xmlns:a="http://ns.adobe.com/AdobeSVGViewerExtensions/3.0/"
	 x="0px" y="0px" width="30px" height="30px" viewBox="0 0 30 30" enable-background="new 0 0 30 30" xml:space="preserve">
<defs>
</defs>
<g>
	<defs>
		<rect id="SVGID_3_" width="30" height="30"/>
	</defs>
	<clipPath id="SVGID_4_">
		<use xlink:href="#SVGID_3_"  overflow="visible"/>
	</clipPath>
	<path clip-path="url(#SVGID_4_)" fill="#7F7F7F" d="M15,0C6.729,0,0,6.729,0,15c0,8.271,6.729,15,15,15c8.271,0,15-6.729,15-15
		C30,6.729,23.271,0,15,0 M15,29C7.28,29,1,22.721,1,15C1,7.28,7.28,1,15,1c7.721,0,14,6.28,14,14C29,22.721,22.721,29,15,29"/>
</g>
<g>
	<defs>
		<rect id="SVGID_2_" width="30" height="30"/>
	</defs>
	<clipPath id="SVGID_5_">
		<use xlink:href="#SVGID_2_"  overflow="visible"/>
	</clipPath>
	<path clip-path="url(#SVGID_5_)" fill="#7F7F7F" d="M12.75,23.805c0.276,0,0.5-0.226,0.5-0.5l0.001-16.608
		c0-0.276-0.224-0.5-0.5-0.5c-0.138,0-0.263,0.056-0.354,0.147c-0.09,0.09-0.146,0.215-0.146,0.353L12.25,23.305
		C12.25,23.579,12.474,23.805,12.75,23.805"/>
</g>
<g>
	<defs>
		<rect id="SVGID_1_" width="30" height="30"/>
	</defs>
	<clipPath id="SVGID_6_">
		<use xlink:href="#SVGID_1_"  overflow="visible"/>
	</clipPath>
	<path clip-path="url(#SVGID_6_)" fill="#7F7F7F" d="M17.249,23.805c0.276,0,0.5-0.226,0.5-0.5l0.002-16.608
		c0-0.276-0.226-0.5-0.5-0.5c-0.14,0-0.265,0.056-0.354,0.147c-0.09,0.09-0.146,0.215-0.146,0.353l-0.002,16.608
		C16.749,23.579,16.975,23.805,17.249,23.805"/>
</g>
</svg>
